<mxfile host="app.diagrams.net" agent="Mozilla/5.0 (Windows NT 10.0; Win64; x64) AppleWebKit/537.36 (KHTML, like Gecko) Chrome/131.0.0.0 Safari/537.36 Edg/131.0.0.0" version="25.0.1">
  <diagram name="페이지-1" id="vw1BpQv-pYSloIDdqgzs">
    <mxGraphModel dx="496" dy="269" grid="1" gridSize="10" guides="1" tooltips="1" connect="1" arrows="1" fold="1" page="1" pageScale="1" pageWidth="827" pageHeight="1169" math="0" shadow="0">
      <root>
        <mxCell id="0" />
        <mxCell id="1" parent="0" />
        <mxCell id="U46OskjsmQrypqIdmsLB-1" value="" style="ellipse;whiteSpace=wrap;html=1;fillColor=#d5e8d4;strokeColor=#82b366;" vertex="1" parent="1">
          <mxGeometry x="270" y="160" width="20" height="20" as="geometry" />
        </mxCell>
        <mxCell id="U46OskjsmQrypqIdmsLB-3" value="" style="ellipse;whiteSpace=wrap;html=1;fillColor=#d5e8d4;strokeColor=#82b366;" vertex="1" parent="1">
          <mxGeometry x="270" y="220" width="20" height="20" as="geometry" />
        </mxCell>
        <mxCell id="U46OskjsmQrypqIdmsLB-6" value="" style="ellipse;whiteSpace=wrap;html=1;fillColor=#f8cecc;strokeColor=#b85450;" vertex="1" parent="1">
          <mxGeometry x="330" y="130" width="20" height="20" as="geometry" />
        </mxCell>
        <mxCell id="U46OskjsmQrypqIdmsLB-7" value="" style="ellipse;whiteSpace=wrap;html=1;fillColor=#f8cecc;strokeColor=#b85450;" vertex="1" parent="1">
          <mxGeometry x="330" y="190" width="20" height="20" as="geometry" />
        </mxCell>
        <mxCell id="U46OskjsmQrypqIdmsLB-15" value="" style="ellipse;whiteSpace=wrap;html=1;fillColor=#d5e8d4;strokeColor=#82b366;" vertex="1" parent="1">
          <mxGeometry x="270" y="100" width="20" height="20" as="geometry" />
        </mxCell>
        <mxCell id="U46OskjsmQrypqIdmsLB-16" value="" style="endArrow=none;html=1;rounded=0;exitX=1;exitY=1;exitDx=0;exitDy=0;entryX=0;entryY=0;entryDx=0;entryDy=0;" edge="1" parent="1" source="U46OskjsmQrypqIdmsLB-15" target="U46OskjsmQrypqIdmsLB-6">
          <mxGeometry width="50" height="50" relative="1" as="geometry">
            <mxPoint x="390" y="220" as="sourcePoint" />
            <mxPoint x="440" y="170" as="targetPoint" />
          </mxGeometry>
        </mxCell>
        <mxCell id="U46OskjsmQrypqIdmsLB-17" value="" style="endArrow=none;html=1;rounded=0;exitX=1;exitY=0;exitDx=0;exitDy=0;entryX=0;entryY=1;entryDx=0;entryDy=0;" edge="1" parent="1" source="U46OskjsmQrypqIdmsLB-1" target="U46OskjsmQrypqIdmsLB-6">
          <mxGeometry width="50" height="50" relative="1" as="geometry">
            <mxPoint x="297" y="127" as="sourcePoint" />
            <mxPoint x="333" y="138" as="targetPoint" />
          </mxGeometry>
        </mxCell>
        <mxCell id="U46OskjsmQrypqIdmsLB-18" value="" style="endArrow=none;html=1;rounded=0;exitX=1;exitY=1;exitDx=0;exitDy=0;entryX=0;entryY=0;entryDx=0;entryDy=0;" edge="1" parent="1" source="U46OskjsmQrypqIdmsLB-1" target="U46OskjsmQrypqIdmsLB-7">
          <mxGeometry width="50" height="50" relative="1" as="geometry">
            <mxPoint x="297" y="163" as="sourcePoint" />
            <mxPoint x="333" y="152" as="targetPoint" />
          </mxGeometry>
        </mxCell>
        <mxCell id="U46OskjsmQrypqIdmsLB-19" value="" style="endArrow=none;html=1;rounded=0;exitX=1;exitY=0;exitDx=0;exitDy=0;entryX=0;entryY=1;entryDx=0;entryDy=0;" edge="1" parent="1" source="U46OskjsmQrypqIdmsLB-3" target="U46OskjsmQrypqIdmsLB-7">
          <mxGeometry width="50" height="50" relative="1" as="geometry">
            <mxPoint x="297" y="177" as="sourcePoint" />
            <mxPoint x="333" y="188" as="targetPoint" />
          </mxGeometry>
        </mxCell>
        <mxCell id="U46OskjsmQrypqIdmsLB-20" value="" style="ellipse;whiteSpace=wrap;html=1;fillColor=#d5e8d4;strokeColor=#82b366;" vertex="1" parent="1">
          <mxGeometry x="390" y="100" width="20" height="20" as="geometry" />
        </mxCell>
        <mxCell id="U46OskjsmQrypqIdmsLB-21" value="" style="endArrow=none;html=1;rounded=0;exitX=1;exitY=0;exitDx=0;exitDy=0;entryX=0;entryY=1;entryDx=0;entryDy=0;" edge="1" parent="1" source="U46OskjsmQrypqIdmsLB-6" target="U46OskjsmQrypqIdmsLB-20">
          <mxGeometry width="50" height="50" relative="1" as="geometry">
            <mxPoint x="297" y="127" as="sourcePoint" />
            <mxPoint x="343" y="143" as="targetPoint" />
          </mxGeometry>
        </mxCell>
        <mxCell id="U46OskjsmQrypqIdmsLB-22" value="" style="ellipse;whiteSpace=wrap;html=1;fillColor=#d5e8d4;strokeColor=#82b366;" vertex="1" parent="1">
          <mxGeometry x="390" y="160" width="20" height="20" as="geometry" />
        </mxCell>
        <mxCell id="U46OskjsmQrypqIdmsLB-23" value="" style="endArrow=none;html=1;rounded=0;exitX=1;exitY=1;exitDx=0;exitDy=0;entryX=0;entryY=0;entryDx=0;entryDy=0;" edge="1" parent="1" source="U46OskjsmQrypqIdmsLB-6" target="U46OskjsmQrypqIdmsLB-22">
          <mxGeometry width="50" height="50" relative="1" as="geometry">
            <mxPoint x="357" y="143" as="sourcePoint" />
            <mxPoint x="403" y="127" as="targetPoint" />
          </mxGeometry>
        </mxCell>
        <mxCell id="U46OskjsmQrypqIdmsLB-25" value="" style="endArrow=none;html=1;rounded=0;exitX=1;exitY=0;exitDx=0;exitDy=0;entryX=0;entryY=1;entryDx=0;entryDy=0;" edge="1" parent="1" target="U46OskjsmQrypqIdmsLB-22" source="U46OskjsmQrypqIdmsLB-7">
          <mxGeometry width="50" height="50" relative="1" as="geometry">
            <mxPoint x="347" y="193" as="sourcePoint" />
            <mxPoint x="392.92893218813447" y="177.07106781186548" as="targetPoint" />
          </mxGeometry>
        </mxCell>
        <mxCell id="U46OskjsmQrypqIdmsLB-26" value="" style="ellipse;whiteSpace=wrap;html=1;fillColor=#d5e8d4;strokeColor=#82b366;" vertex="1" parent="1">
          <mxGeometry x="390" y="220" width="20" height="20" as="geometry" />
        </mxCell>
        <mxCell id="U46OskjsmQrypqIdmsLB-27" value="" style="endArrow=none;html=1;rounded=0;exitX=1;exitY=1;exitDx=0;exitDy=0;entryX=0;entryY=0;entryDx=0;entryDy=0;" edge="1" parent="1" target="U46OskjsmQrypqIdmsLB-26" source="U46OskjsmQrypqIdmsLB-7">
          <mxGeometry width="50" height="50" relative="1" as="geometry">
            <mxPoint x="347" y="207" as="sourcePoint" />
            <mxPoint x="403" y="187" as="targetPoint" />
          </mxGeometry>
        </mxCell>
        <mxCell id="U46OskjsmQrypqIdmsLB-28" value="" style="ellipse;whiteSpace=wrap;html=1;fillColor=#d5e8d4;strokeColor=#82b366;" vertex="1" parent="1">
          <mxGeometry x="270" y="280" width="20" height="20" as="geometry" />
        </mxCell>
        <mxCell id="U46OskjsmQrypqIdmsLB-29" value="" style="ellipse;whiteSpace=wrap;html=1;fillColor=#f8cecc;strokeColor=#b85450;" vertex="1" parent="1">
          <mxGeometry x="330" y="250" width="20" height="20" as="geometry" />
        </mxCell>
        <mxCell id="U46OskjsmQrypqIdmsLB-30" value="" style="endArrow=none;html=1;rounded=0;exitX=1;exitY=1;exitDx=0;exitDy=0;entryX=0;entryY=0;entryDx=0;entryDy=0;" edge="1" parent="1" target="U46OskjsmQrypqIdmsLB-29" source="U46OskjsmQrypqIdmsLB-3">
          <mxGeometry width="50" height="50" relative="1" as="geometry">
            <mxPoint x="287" y="230" as="sourcePoint" />
            <mxPoint x="333" y="205" as="targetPoint" />
          </mxGeometry>
        </mxCell>
        <mxCell id="U46OskjsmQrypqIdmsLB-31" value="" style="endArrow=none;html=1;rounded=0;exitX=1;exitY=0;exitDx=0;exitDy=0;entryX=0;entryY=1;entryDx=0;entryDy=0;" edge="1" parent="1" source="U46OskjsmQrypqIdmsLB-28" target="U46OskjsmQrypqIdmsLB-29">
          <mxGeometry width="50" height="50" relative="1" as="geometry">
            <mxPoint x="297" y="230" as="sourcePoint" />
            <mxPoint x="333" y="241" as="targetPoint" />
          </mxGeometry>
        </mxCell>
        <mxCell id="U46OskjsmQrypqIdmsLB-32" value="" style="endArrow=none;html=1;rounded=0;exitX=1;exitY=0;exitDx=0;exitDy=0;entryX=0;entryY=1;entryDx=0;entryDy=0;" edge="1" parent="1" source="U46OskjsmQrypqIdmsLB-29" target="U46OskjsmQrypqIdmsLB-26">
          <mxGeometry width="50" height="50" relative="1" as="geometry">
            <mxPoint x="347" y="246" as="sourcePoint" />
            <mxPoint x="393" y="230" as="targetPoint" />
          </mxGeometry>
        </mxCell>
        <mxCell id="U46OskjsmQrypqIdmsLB-33" value="" style="ellipse;whiteSpace=wrap;html=1;fillColor=#d5e8d4;strokeColor=#82b366;" vertex="1" parent="1">
          <mxGeometry x="390" y="280" width="20" height="20" as="geometry" />
        </mxCell>
        <mxCell id="U46OskjsmQrypqIdmsLB-34" value="" style="endArrow=none;html=1;rounded=0;exitX=1;exitY=1;exitDx=0;exitDy=0;entryX=0;entryY=0;entryDx=0;entryDy=0;" edge="1" parent="1" source="U46OskjsmQrypqIdmsLB-29" target="U46OskjsmQrypqIdmsLB-33">
          <mxGeometry width="50" height="50" relative="1" as="geometry">
            <mxPoint x="347" y="260" as="sourcePoint" />
            <mxPoint x="403" y="240" as="targetPoint" />
          </mxGeometry>
        </mxCell>
        <mxCell id="U46OskjsmQrypqIdmsLB-35" value="" style="ellipse;whiteSpace=wrap;html=1;fillColor=#f8cecc;strokeColor=#b85450;" vertex="1" parent="1">
          <mxGeometry x="450" y="130" width="20" height="20" as="geometry" />
        </mxCell>
        <mxCell id="U46OskjsmQrypqIdmsLB-36" value="" style="ellipse;whiteSpace=wrap;html=1;fillColor=#f8cecc;strokeColor=#b85450;" vertex="1" parent="1">
          <mxGeometry x="450" y="190" width="20" height="20" as="geometry" />
        </mxCell>
        <mxCell id="U46OskjsmQrypqIdmsLB-37" value="" style="endArrow=none;html=1;rounded=0;exitX=0.931;exitY=0.758;exitDx=0;exitDy=0;entryX=0;entryY=0;entryDx=0;entryDy=0;exitPerimeter=0;" edge="1" parent="1" target="U46OskjsmQrypqIdmsLB-35" source="U46OskjsmQrypqIdmsLB-20">
          <mxGeometry width="50" height="50" relative="1" as="geometry">
            <mxPoint x="410" y="117" as="sourcePoint" />
            <mxPoint x="563" y="170" as="targetPoint" />
          </mxGeometry>
        </mxCell>
        <mxCell id="U46OskjsmQrypqIdmsLB-38" value="" style="endArrow=none;html=1;rounded=0;exitX=1;exitY=0;exitDx=0;exitDy=0;entryX=0;entryY=1;entryDx=0;entryDy=0;" edge="1" parent="1" target="U46OskjsmQrypqIdmsLB-35" source="U46OskjsmQrypqIdmsLB-22">
          <mxGeometry width="50" height="50" relative="1" as="geometry">
            <mxPoint x="410" y="163" as="sourcePoint" />
            <mxPoint x="456" y="138" as="targetPoint" />
          </mxGeometry>
        </mxCell>
        <mxCell id="U46OskjsmQrypqIdmsLB-39" value="" style="endArrow=none;html=1;rounded=0;exitX=0.905;exitY=0.858;exitDx=0;exitDy=0;entryX=0;entryY=0;entryDx=0;entryDy=0;exitPerimeter=0;" edge="1" parent="1" target="U46OskjsmQrypqIdmsLB-36" source="U46OskjsmQrypqIdmsLB-22">
          <mxGeometry width="50" height="50" relative="1" as="geometry">
            <mxPoint x="410" y="177" as="sourcePoint" />
            <mxPoint x="456" y="152" as="targetPoint" />
          </mxGeometry>
        </mxCell>
        <mxCell id="U46OskjsmQrypqIdmsLB-40" value="" style="endArrow=none;html=1;rounded=0;exitX=1;exitY=0;exitDx=0;exitDy=0;entryX=0;entryY=1;entryDx=0;entryDy=0;" edge="1" parent="1" target="U46OskjsmQrypqIdmsLB-36" source="U46OskjsmQrypqIdmsLB-26">
          <mxGeometry width="50" height="50" relative="1" as="geometry">
            <mxPoint x="410" y="223" as="sourcePoint" />
            <mxPoint x="456" y="188" as="targetPoint" />
          </mxGeometry>
        </mxCell>
        <mxCell id="U46OskjsmQrypqIdmsLB-41" value="" style="ellipse;whiteSpace=wrap;html=1;fillColor=#d5e8d4;strokeColor=#82b366;" vertex="1" parent="1">
          <mxGeometry x="510" y="100" width="20" height="20" as="geometry" />
        </mxCell>
        <mxCell id="U46OskjsmQrypqIdmsLB-42" value="" style="endArrow=none;html=1;rounded=0;exitX=1;exitY=0;exitDx=0;exitDy=0;entryX=0;entryY=1;entryDx=0;entryDy=0;" edge="1" parent="1" source="U46OskjsmQrypqIdmsLB-35" target="U46OskjsmQrypqIdmsLB-41">
          <mxGeometry width="50" height="50" relative="1" as="geometry">
            <mxPoint x="420" y="127" as="sourcePoint" />
            <mxPoint x="466" y="143" as="targetPoint" />
          </mxGeometry>
        </mxCell>
        <mxCell id="U46OskjsmQrypqIdmsLB-43" value="" style="ellipse;whiteSpace=wrap;html=1;fillColor=#d5e8d4;strokeColor=#82b366;" vertex="1" parent="1">
          <mxGeometry x="510" y="160" width="20" height="20" as="geometry" />
        </mxCell>
        <mxCell id="U46OskjsmQrypqIdmsLB-44" value="" style="endArrow=none;html=1;rounded=0;exitX=1;exitY=1;exitDx=0;exitDy=0;entryX=0;entryY=0;entryDx=0;entryDy=0;" edge="1" parent="1" source="U46OskjsmQrypqIdmsLB-35" target="U46OskjsmQrypqIdmsLB-43">
          <mxGeometry width="50" height="50" relative="1" as="geometry">
            <mxPoint x="480" y="143" as="sourcePoint" />
            <mxPoint x="526" y="127" as="targetPoint" />
          </mxGeometry>
        </mxCell>
        <mxCell id="U46OskjsmQrypqIdmsLB-45" value="" style="endArrow=none;html=1;rounded=0;exitX=1;exitY=0;exitDx=0;exitDy=0;entryX=0;entryY=1;entryDx=0;entryDy=0;" edge="1" parent="1" source="U46OskjsmQrypqIdmsLB-36" target="U46OskjsmQrypqIdmsLB-43">
          <mxGeometry width="50" height="50" relative="1" as="geometry">
            <mxPoint x="470" y="193" as="sourcePoint" />
            <mxPoint x="515.9289321881345" y="177.07106781186548" as="targetPoint" />
          </mxGeometry>
        </mxCell>
        <mxCell id="U46OskjsmQrypqIdmsLB-46" value="" style="ellipse;whiteSpace=wrap;html=1;fillColor=#d5e8d4;strokeColor=#82b366;" vertex="1" parent="1">
          <mxGeometry x="510" y="220" width="20" height="20" as="geometry" />
        </mxCell>
        <mxCell id="U46OskjsmQrypqIdmsLB-47" value="" style="endArrow=none;html=1;rounded=0;exitX=1;exitY=1;exitDx=0;exitDy=0;entryX=0;entryY=0;entryDx=0;entryDy=0;" edge="1" parent="1" source="U46OskjsmQrypqIdmsLB-36" target="U46OskjsmQrypqIdmsLB-46">
          <mxGeometry width="50" height="50" relative="1" as="geometry">
            <mxPoint x="470" y="207" as="sourcePoint" />
            <mxPoint x="526" y="187" as="targetPoint" />
          </mxGeometry>
        </mxCell>
        <mxCell id="U46OskjsmQrypqIdmsLB-48" value="" style="ellipse;whiteSpace=wrap;html=1;fillColor=#f8cecc;strokeColor=#b85450;" vertex="1" parent="1">
          <mxGeometry x="450" y="250" width="20" height="20" as="geometry" />
        </mxCell>
        <mxCell id="U46OskjsmQrypqIdmsLB-49" value="" style="endArrow=none;html=1;rounded=0;exitX=1;exitY=1;exitDx=0;exitDy=0;entryX=0;entryY=0;entryDx=0;entryDy=0;" edge="1" parent="1" target="U46OskjsmQrypqIdmsLB-48" source="U46OskjsmQrypqIdmsLB-26">
          <mxGeometry width="50" height="50" relative="1" as="geometry">
            <mxPoint x="410" y="237" as="sourcePoint" />
            <mxPoint x="456" y="205" as="targetPoint" />
          </mxGeometry>
        </mxCell>
        <mxCell id="U46OskjsmQrypqIdmsLB-50" value="" style="endArrow=none;html=1;rounded=0;exitX=1;exitY=0;exitDx=0;exitDy=0;entryX=0;entryY=1;entryDx=0;entryDy=0;" edge="1" parent="1" target="U46OskjsmQrypqIdmsLB-48" source="U46OskjsmQrypqIdmsLB-33">
          <mxGeometry width="50" height="50" relative="1" as="geometry">
            <mxPoint x="410" y="283" as="sourcePoint" />
            <mxPoint x="456" y="241" as="targetPoint" />
          </mxGeometry>
        </mxCell>
        <mxCell id="U46OskjsmQrypqIdmsLB-51" value="" style="endArrow=none;html=1;rounded=0;exitX=1;exitY=0;exitDx=0;exitDy=0;entryX=0;entryY=1;entryDx=0;entryDy=0;" edge="1" parent="1" source="U46OskjsmQrypqIdmsLB-48" target="U46OskjsmQrypqIdmsLB-46">
          <mxGeometry width="50" height="50" relative="1" as="geometry">
            <mxPoint x="470" y="246" as="sourcePoint" />
            <mxPoint x="516" y="230" as="targetPoint" />
          </mxGeometry>
        </mxCell>
        <mxCell id="U46OskjsmQrypqIdmsLB-52" value="" style="ellipse;whiteSpace=wrap;html=1;fillColor=#d5e8d4;strokeColor=#82b366;" vertex="1" parent="1">
          <mxGeometry x="510" y="280" width="20" height="20" as="geometry" />
        </mxCell>
        <mxCell id="U46OskjsmQrypqIdmsLB-53" value="" style="endArrow=none;html=1;rounded=0;exitX=1;exitY=1;exitDx=0;exitDy=0;entryX=0;entryY=0;entryDx=0;entryDy=0;" edge="1" parent="1" source="U46OskjsmQrypqIdmsLB-48" target="U46OskjsmQrypqIdmsLB-52">
          <mxGeometry width="50" height="50" relative="1" as="geometry">
            <mxPoint x="470" y="260" as="sourcePoint" />
            <mxPoint x="526" y="240" as="targetPoint" />
          </mxGeometry>
        </mxCell>
      </root>
    </mxGraphModel>
  </diagram>
</mxfile>
